{
    "asset": {
        "version": "2.0",
        "generator": "Open Asset Import Library (assimp v5.2.0)"
    },
    "extensionsUsed": [
        "KHR_materials_pbrSpecularGlossiness",
        "FB_ngon_encoding"
    ],
    "accessors": [
        {
            "bufferView": 0,
            "byteOffset": 0,
            "componentType": 5126,
            "count": 29862,
            "type": "VEC3",
            "max": [
                60.84830093383789,
                34.5,
                9.0
            ],
            "min": [
                -32.999900817871097,
                -34.38479995727539,
                -30.200000762939454
            ]
        },
        {
            "bufferView": 1,
            "byteOffset": 0,
            "componentType": 5126,
            "count": 29862,
            "type": "VEC3",
            "max": [
                1.0,
                1.0,
                1.0
            ],
            "min": [
                -1.0,
                -1.0,
                -1.0
            ]
        },
        {
            "bufferView": 2,
            "byteOffset": 0,
            "componentType": 5125,
            "count": 43698,
            "type": "SCALAR",
            "max": [
                29861
            ],
            "min": [
                0
            ]
        }
    ],
    "buffers": [
        {
            "byteLength": 891480,
            "uri": "lds.bin"
        }
    ],
    "bufferViews": [
        {
            "buffer": 0,
            "byteOffset": 0,
            "byteLength": 358344,
            "target": 34962
        },
        {
            "buffer": 0,
            "byteOffset": 358344,
            "byteLength": 358344,
            "target": 34962
        },
        {
            "buffer": 0,
            "byteOffset": 716688,
            "byteLength": 174792,
            "target": 34963
        }
    ],
    "materials": [
        {
            "name": "m0DefaultMaterial",
            "pbrMetallicRoughness": {
                "baseColorFactor": [
                    0.6000000238418579,
                    0.6000000238418579,
                    0.6000000238418579,
                    1.0
                ],
                "metallicFactor": 0.0,
                "roughnessFactor": 0.9399999976158142
            },
            "extensions": {
                "KHR_materials_pbrSpecularGlossiness": {
                    "diffuseFactor": [
                        0.6000000238418579,
                        0.6000000238418579,
                        0.6000000238418579,
                        1.0
                    ],
                    "specularFactor": [
                        0.6000000238418579,
                        0.6000000238418579,
                        0.6000000238418579
                    ],
                    "glossinessFactor": 0.009999999776482582
                }
            }
        }
    ],
    "meshes": [
        {
            "name": "meshId0",
            "primitives": [
                {
                    "mode": 4,
                    "material": 0,
                    "indices": 2,
                    "attributes": {
                        "POSITION": 0,
                        "NORMAL": 1
                    }
                }
            ]
        }
    ],
    "nodes": [
        {
            "name": "Scene",
            "children": [
                1
            ]
        },
        {
            "name": "<STL_BINARY>",
            "mesh": 0
        }
    ],
    "scenes": [
        {
            "nodes": [
                0
            ]
        }
    ],
    "scene": 0
}