{"scene":0,"scenes":[{"nodes":[0]}],"asset":{"version":"2.0","generator":"https://github.com/mikedh/trimesh"},"accessors":[{"componentType":5125,"type":"SCALAR","bufferView":0,"count":600,"max":[101],"min":[0]},{"componentType":5126,"type":"VEC3","byteOffset":0,"bufferView":1,"count":102,"max":[0.07156699150800705,0.09467043727636337,0.14000283181667328],"min":[-0.15407869219779968,-0.09461374580860138,-3.249277506256476e-05]}],"meshes":[{"name":"link0.stl","extras":{"header":"Exported from Blender-2.79 (sub 0)\u0000\u0000\u0000\u0000\u0000\u0000\u0000\u0000\u0000\u0000\u0000\u0000\u0000\u0000\u0000\u0000\u0000\u0000\u0000\u0000\u0000\u0000\u0000\u0000\u0000\u0000\u0000\u0000\u0000\u0000\u0000\u0000\u0000\u0000\u0000\u0000\u0000\u0000\u0000\u0000\u0000\u0000\u0000\u0000\u0000\u0000","processed":true},"primitives":[{"attributes":{"POSITION":1},"indices":0,"mode":4}]}],"nodes":[{"name":"world","children":[1]},{"name":"link0.stl","mesh":0}],"buffers":[{"uri":"gltf_buffer_0.bin","byteLength":2400},{"uri":"gltf_buffer_1.bin","byteLength":1224}],"bufferViews":[{"buffer":0,"byteOffset":0,"byteLength":2400},{"buffer":1,"byteOffset":0,"byteLength":1224}]}