# File generated by ImageToStl.com - Free Image and 3D model conversion tools

mtllib wsg_body.mtl

o obj1
v -0.073 -0.0245 -0.00625
v -0.073 -0.0245 0.03575
v -0.073 0.0245 -0.00625
v -0.073 0.0245 0.03575
v 0.073 0.0245 -0.00625
v 0.073 0.0245 0.01525
v 0.073 -0.0245 -0.00625
v 0.073 -0.0245 0.01525
v 0.0725 -0.025 0.01575
v 0.0525 0.025 0.03575
v 0.052 0.0245 0.03625
v 0.052 -0.0245 0.03625
v 0.0725 0.025 0.01575
v 0.0525 -0.025 0.03575
v -0.0725 0.0245 0.03625
v -0.0725 -0.0245 0.03625
v 0.002 -0.025 -0.003464
v 0.001368 -0.025 -0.003759
v 0.0725 -0.025 -0.00625
v 0.000695 -0.025 -0.003939
v 0 -0.025 -0.004
v -0.0725 -0.025 -0.00625
v -0.000695 -0.025 -0.003939
v -0.001368 -0.025 -0.003759
v -0.002 -0.025 -0.003464
v -0.002571 -0.025 -0.003064
v -0.003064 -0.025 -0.002571
v -0.003464 -0.025 -0.002
v -0.003759 -0.025 -0.001368
v -0.003939 -0.025 -0.000695
v -0.004 -0.025 -0
v -0.003939 -0.025 0.000695
v -0.0725 -0.025 0.03575
v -0.003759 -0.025 0.001368
v -0.003464 -0.025 0.002
v -0.003064 -0.025 0.002571
v -0.002571 -0.025 0.003064
v -0.002 -0.025 0.003464
v -0.001368 -0.025 0.003759
v -0.000695 -0.025 0.003939
v 0 -0.025 0.004
v 0.000695 -0.025 0.003939
v 0.001368 -0.025 0.003759
v 0.002 -0.025 0.003464
v 0.003464 -0.025 0.002
v 0.004 -0.025 -0
v 0.003939 -0.025 0.000695
v 0.003759 -0.025 0.001368
v 0.003939 -0.025 -0.000695
v 0.003759 -0.025 -0.001368
v 0.003464 -0.025 -0.002
v 0.002571 -0.025 0.003064
v 0.003064 -0.025 0.002571
v 0.003064 -0.025 -0.002571
v 0.002571 -0.025 -0.003064
v 0.0725 0.025 -0.00625
v -0.0725 0.025 -0.00625
v -0.0725 0.025 0.03575
v 0 -0.024 -0.004
v 0.000695 -0.024 -0.003939
v 0.001368 -0.024 -0.003759
v 0.002 -0.024 -0.003464
v 0.002571 -0.024 -0.003064
v 0.003064 -0.024 -0.002571
v 0.003464 -0.024 -0.002
v 0.003759 -0.024 -0.001368
v 0.003939 -0.024 -0.000695
v 0.004 -0.024 -0
v 0.003939 -0.024 0.000695
v 0.003759 -0.024 0.001368
v 0.003464 -0.024 0.002
v 0.003064 -0.024 0.002571
v 0.002571 -0.024 0.003064
v 0.002 -0.024 0.003464
v 0.001368 -0.024 0.003759
v 0.000695 -0.024 0.003939
v 0 -0.024 0.004
v -0.000695 -0.024 0.003939
v -0.001368 -0.024 0.003759
v -0.002 -0.024 0.003464
v -0.002571 -0.024 0.003064
v -0.003064 -0.024 0.002571
v -0.003464 -0.024 0.002
v -0.003759 -0.024 0.001368
v -0.003939 -0.024 0.000695
v -0.004 -0.024 -0
v -0.003939 -0.024 -0.000695
v -0.003759 -0.024 -0.001368
v -0.003464 -0.024 -0.002
v -0.003064 -0.024 -0.002571
v -0.002571 -0.024 -0.003064
v -0.002 -0.024 -0.003464
v -0.001368 -0.024 -0.003759
v -0.000695 -0.024 -0.003939
v 0 -0.024 -0
v -0.07 0.022 -0.00725
v 0.07 0.022 -0.00725
v 0.0725 0.025 -0.00725
v 0.07 -0.022 -0.00725
v -0.07 -0.022 -0.00725
v -0.0725 -0.025 -0.00725
v 0.0725 -0.025 -0.00725
v 0.073 -0.0245 -0.00725
v 0.073 0.0245 -0.00725
v -0.0725 0.025 -0.00725
v -0.073 0.0245 -0.00725
v -0.073 -0.0245 -0.00725
v 0.07 -0.022 -0.00625
v 0.07 0.022 -0.00625
v -0.07 0.022 -0.00625
v -0.07 -0.022 -0.00625
v -0.0725 0.025 -0.03625
v 0.0725 0.025 -0.03625
v -0.0725 -0.025 -0.03625
v 0.0725 -0.025 -0.03625
v -0.073 0.0245 -0.03575
v -0.073 -0.0245 -0.03575
v 0.073 0.0245 -0.03575
v 0.073 -0.0245 -0.03575
vn -1 0 0
vn 1 0 0
vn 0.70711 -0 0.70711
vn 0 -0 1
vn 0 -1 -0
vn 0 1 0
vn 0 -0.70711 0.70711
vn 0 0.70711 0.70711
vn -0.70711 -0 0.70711
vn -0.57738 -0.57728 0.57738
vn -0.57738 0.57728 0.57738
vn -0.70711 -0.70711 -0
vn -0.70711 0.70711 0
vn 0.70711 -0.70711 -0
vn 0.70711 0.70711 0
vn -0.0872 -0 0.99619
vn -0.25881 -0 0.96593
vn -0.42261 -0 0.90631
vn -0.57357 -0 0.81916
vn -0.81916 -0 0.57357
vn -0.90631 -0 0.42261
vn -0.96593 -0 0.25881
vn -0.99619 -0 0.0872
vn -0.99619 0 -0.0872
vn -0.96593 0 -0.25881
vn -0.90631 0 -0.42261
vn -0.81916 0 -0.57357
vn -0.70711 0 -0.70711
vn -0.57357 0 -0.81916
vn -0.42261 0 -0.90631
vn -0.25881 0 -0.96593
vn -0.0872 0 -0.99619
vn 0.0872 0 -0.99619
vn 0.25881 0 -0.96593
vn 0.42261 0 -0.90631
vn 0.57357 0 -0.81916
vn 0.70711 0 -0.70711
vn 0.81916 0 -0.57357
vn 0.90631 0 -0.42261
vn 0.96593 0 -0.25881
vn 0.99619 0 -0.0872
vn 0.99619 -0 0.0872
vn 0.96593 -0 0.25881
vn 0.90631 -0 0.42261
vn 0.81916 -0 0.57357
vn 0.57357 -0 0.81916
vn 0.42261 -0 0.90631
vn 0.25881 -0 0.96593
vn 0.0872 -0 0.99619
vn 0 0 -1
usemtl mat0
f 1//1 2//1 3//1
f 3//1 2//1 4//1
f 5//2 6//2 7//2
f 7//2 6//2 8//2
f 9//3 8//3 6//3
f 10//3 11//3 12//3
f 6//3 13//3 9//3
f 9//3 13//3 10//3
f 9//3 10//3 14//3
f 14//3 10//3 12//3
f 15//4 16//4 11//4
f 11//4 16//4 12//4
f 17//5 18//5 19//5
f 18//5 20//5 19//5
f 19//5 20//5 21//5
f 19//5 21//5 22//5
f 22//5 21//5 23//5
f 22//5 23//5 24//5
f 24//5 25//5 22//5
f 22//5 25//5 26//5
f 22//5 26//5 27//5
f 27//5 28//5 22//5
f 22//5 28//5 29//5
f 22//5 29//5 30//5
f 30//5 31//5 22//5
f 22//5 31//5 32//5
f 22//5 32//5 33//5
f 33//5 32//5 34//5
f 33//5 34//5 35//5
f 35//5 36//5 33//5
f 33//5 36//5 37//5
f 33//5 37//5 38//5
f 38//5 39//5 33//5
f 33//5 39//5 40//5
f 33//5 40//5 14//5
f 14//5 40//5 41//5
f 41//5 42//5 14//5
f 14//5 42//5 43//5
f 14//5 43//5 44//5
f 9//5 14//5 45//5
f 46//5 19//5 47//5
f 47//5 19//5 9//5
f 47//5 9//5 48//5
f 48//5 9//5 45//5
f 46//5 49//5 19//5
f 19//5 49//5 50//5
f 19//5 50//5 51//5
f 44//5 52//5 14//5
f 14//5 52//5 53//5
f 14//5 53//5 45//5
f 51//5 54//5 19//5
f 19//5 54//5 55//5
f 19//5 55//5 17//5
f 13//6 56//6 10//6
f 10//6 56//6 57//6
f 10//6 57//6 58//6
f 16//7 33//7 12//7
f 12//7 33//7 14//7
f 58//8 15//8 10//8
f 10//8 15//8 11//8
f 15//9 4//9 16//9
f 16//9 4//9 2//9
f 16//10 2//10 33//10
f 15//11 58//11 4//11
f 33//12 2//12 22//12
f 22//12 2//12 1//12
f 4//13 58//13 3//13
f 3//13 58//13 57//13
f 8//14 9//14 7//14
f 7//14 9//14 19//14
f 13//15 6//15 56//15
f 56//15 6//15 5//15
f 59//16 21//16 60//16
f 60//16 21//16 20//16
f 60//17 20//17 61//17
f 61//17 20//17 18//17
f 61//18 18//18 62//18
f 62//18 18//18 17//18
f 62//19 17//19 63//19
f 63//19 17//19 55//19
f 63//9 55//9 64//9
f 64//9 55//9 54//9
f 64//20 54//20 65//20
f 65//20 54//20 51//20
f 65//21 51//21 66//21
f 66//21 51//21 50//21
f 66//22 50//22 67//22
f 67//22 50//22 49//22
f 67//23 49//23 68//23
f 68//23 49//23 46//23
f 68//24 46//24 69//24
f 69//24 46//24 47//24
f 69//25 47//25 70//25
f 70//25 47//25 48//25
f 70//26 48//26 71//26
f 71//26 48//26 45//26
f 71//27 45//27 72//27
f 72//27 45//27 53//27
f 72//28 53//28 73//28
f 73//28 53//28 52//28
f 73//29 52//29 74//29
f 74//29 52//29 44//29
f 74//30 44//30 75//30
f 75//30 44//30 43//30
f 75//31 43//31 76//31
f 76//31 43//31 42//31
f 76//32 42//32 77//32
f 77//32 42//32 41//32
f 77//33 41//33 78//33
f 78//33 41//33 40//33
f 78//34 40//34 79//34
f 79//34 40//34 39//34
f 79//35 39//35 80//35
f 80//35 39//35 38//35
f 80//36 38//36 81//36
f 81//36 38//36 37//36
f 81//37 37//37 82//37
f 82//37 37//37 36//37
f 82//38 36//38 83//38
f 83//38 36//38 35//38
f 83//39 35//39 84//39
f 84//39 35//39 34//39
f 84//40 34//40 85//40
f 85//40 34//40 32//40
f 85//41 32//41 86//41
f 86//41 32//41 31//41
f 86//42 31//42 87//42
f 87//42 31//42 30//42
f 87//43 30//43 88//43
f 88//43 30//43 29//43
f 88//44 29//44 89//44
f 89//44 29//44 28//44
f 89//45 28//45 90//45
f 90//45 28//45 27//45
f 90//3 27//3 91//3
f 91//3 27//3 26//3
f 91//46 26//46 92//46
f 92//46 26//46 25//46
f 92//47 25//47 93//47
f 93//47 25//47 24//47
f 93//48 24//48 94//48
f 94//48 24//48 23//48
f 94//49 23//49 59//49
f 59//49 23//49 21//49
f 93//5 94//5 95//5
f 95//5 94//5 59//5
f 95//5 59//5 60//5
f 90//5 91//5 95//5
f 95//5 91//5 92//5
f 95//5 92//5 93//5
f 87//5 88//5 95//5
f 95//5 88//5 89//5
f 95//5 89//5 90//5
f 84//5 85//5 95//5
f 95//5 85//5 86//5
f 95//5 86//5 87//5
f 81//5 82//5 95//5
f 95//5 82//5 83//5
f 95//5 83//5 84//5
f 78//5 79//5 95//5
f 95//5 79//5 80//5
f 95//5 80//5 81//5
f 75//5 76//5 95//5
f 95//5 76//5 77//5
f 95//5 77//5 78//5
f 72//5 73//5 95//5
f 95//5 73//5 74//5
f 95//5 74//5 75//5
f 69//5 70//5 95//5
f 95//5 70//5 71//5
f 95//5 71//5 72//5
f 66//5 67//5 95//5
f 95//5 67//5 68//5
f 95//5 68//5 69//5
f 63//5 64//5 95//5
f 95//5 64//5 65//5
f 95//5 65//5 66//5
f 60//5 61//5 95//5
f 95//5 61//5 62//5
f 95//5 62//5 63//5
f 96//4 97//4 98//4
f 99//4 100//4 101//4
f 101//4 102//4 99//4
f 99//4 102//4 103//4
f 99//4 103//4 97//4
f 97//4 103//4 104//4
f 97//4 104//4 98//4
f 98//4 105//4 96//4
f 96//4 105//4 106//4
f 96//4 106//4 100//4
f 100//4 106//4 107//4
f 100//4 107//4 101//4
f 108//50 109//50 5//50
f 110//50 57//50 109//50
f 109//50 57//50 56//50
f 109//50 56//50 5//50
f 5//50 7//50 108//50
f 108//50 7//50 19//50
f 108//50 19//50 111//50
f 19//50 22//50 111//50
f 111//50 22//50 1//50
f 111//50 1//50 110//50
f 110//50 1//50 3//50
f 110//50 3//50 57//50
f 96//1 100//1 110//1
f 110//1 100//1 111//1
f 97//6 96//6 109//6
f 109//6 96//6 110//6
f 99//2 97//2 108//2
f 108//2 97//2 109//2
f 100//5 99//5 111//5
f 111//5 99//5 108//5
f 112//50 113//50 114//50
f 114//50 113//50 115//50
f 116//28 112//28 117//28
f 117//28 112//28 114//28
f 113//37 118//37 115//37
f 115//37 118//37 119//37
f 105//13 112//13 106//13
f 106//13 112//13 116//13
f 104//15 118//15 98//15
f 98//15 118//15 113//15
f 113//6 112//6 98//6
f 98//6 112//6 105//6
f 107//12 117//12 101//12
f 101//12 117//12 114//12
f 102//14 115//14 103//14
f 103//14 115//14 119//14
f 101//5 114//5 102//5
f 102//5 114//5 115//5
f 119//2 118//2 103//2
f 103//2 118//2 104//2
f 116//1 117//1 106//1
f 106//1 117//1 107//1
# Vertices: 119, normals: 50, texture coordinates: 0, faces: 234

