{
    "asset": {
        "version": "2.0",
        "generator": "Open Asset Import Library (assimp v5.2.0)"
    },
    "extensionsUsed": [
        "KHR_materials_pbrSpecularGlossiness",
        "FB_ngon_encoding"
    ],
    "accessors": [
        {
            "bufferView": 0,
            "byteOffset": 0,
            "componentType": 5126,
            "count": 469157,
            "type": "VEC3",
            "max": [
                0.5810477137565613,
                0.3154484033584595,
                0.6672000288963318
            ],
            "min": [
                -0.5406395196914673,
                -0.3149999976158142,
                -3.552713930263407e-17
            ]
        },
        {
            "bufferView": 1,
            "byteOffset": 0,
            "componentType": 5126,
            "count": 469157,
            "type": "VEC3",
            "max": [
                1.0,
                1.0,
                1.0
            ],
            "min": [
                -1.0,
                -1.0,
                -1.0
            ]
        },
        {
            "bufferView": 2,
            "byteOffset": 0,
            "componentType": 5125,
            "count": 601881,
            "type": "SCALAR",
            "max": [
                469156
            ],
            "min": [
                0
            ]
        }
    ],
    "buffers": [
        {
            "byteLength": 13667292,
            "uri": "KMP200.bin"
        }
    ],
    "bufferViews": [
        {
            "buffer": 0,
            "byteOffset": 0,
            "byteLength": 5629884,
            "target": 34962
        },
        {
            "buffer": 0,
            "byteOffset": 5629884,
            "byteLength": 5629884,
            "target": 34962
        },
        {
            "buffer": 0,
            "byteOffset": 11259768,
            "byteLength": 2407524,
            "target": 34963
        }
    ],
    "materials": [
        {
            "name": "Part__Feature",
            "pbrMetallicRoughness": {
                "baseColorFactor": [
                    0.0,
                    1.0,
                    0.6000000238418579,
                    1.0
                ],
                "metallicFactor": 0.0
            },
            "extensions": {
                "KHR_materials_pbrSpecularGlossiness": {
                    "diffuseFactor": [
                        0.0,
                        1.0,
                        0.6000000238418579,
                        1.0
                    ],
                    "glossinessFactor": 0.0
                }
            }
        }
    ],
    "meshes": [
        {
            "name": "geometry0",
            "primitives": [
                {
                    "mode": 4,
                    "material": 0,
                    "indices": 2,
                    "attributes": {
                        "POSITION": 0,
                        "NORMAL": 1
                    }
                }
            ]
        }
    ],
    "nodes": [
        {
            "name": "myscene",
            "matrix": [
                1.0,
                0.0,
                0.0,
                0.0,
                0.0,
                0.0,
                -1.0,
                0.0,
                0.0,
                1.0,
                0.0,
                0.0,
                0.0,
                0.0,
                0.0,
                1.0
            ],
            "children": [
                1
            ]
        },
        {
            "name": "node0",
            "mesh": 0
        }
    ],
    "scenes": [
        {
            "nodes": [
                0
            ]
        }
    ],
    "scene": 0
}